name rise30.2954peak35.7071fall66.7804.mot
datacolumns 19
datarows 29
range 18.95826200000000 19.00493700000000
endheader
time	ground_force1_vx	ground_force1_vy	ground_force1_vz	ground_force1_px	ground_force1_py	ground_force1_pz	ground_force2_vx	ground_force2_vy	ground_force2_vz	ground_force2_px	ground_force2_py	ground_force2_pz	ground_torque1_x	ground_torque1_y	ground_torque1_z	ground_torque2_x	ground_torque2_y	ground_torque2_z	
18.95826200000000	-45.56209200000000	805.58740899999998	58.14446100000000	0.04534800000000	0.00000000000000	0.11313500000000	-4.30496300000000	62.27489200000000	9.59273900000000	0.29773700000000	0.00000000000000	-0.07448800000000	0.00000000000000	15.95693300000000	0.00000000000000	0.00000000000000	5.19324900000000	0.00000000000000	
18.95993100000000	-45.59450100000000	802.57215399999995	57.85712800000000	0.04490700000000	0.00000000000000	0.11303800000000	-4.50331100000000	67.98007600000000	10.18492800000000	0.29961200000000	0.00000000000000	-0.07474800000000	0.00000000000000	15.82437200000000	0.00000000000000	0.00000000000000	5.55158900000000	0.00000000000000	
18.96160600000000	-45.63733100000000	799.44426099999998	57.54598000000000	0.04447200000000	0.00000000000000	0.11293600000000	-4.64294100000000	73.46924100000000	10.68873400000000	0.30135400000000	0.00000000000000	-0.07499900000000	0.00000000000000	15.69375700000000	0.00000000000000	0.00000000000000	5.86688300000000	0.00000000000000	
18.96326400000000	-45.69160600000000	796.20462599999996	57.21094900000000	0.04404100000000	0.00000000000000	0.11283000000000	-4.72376800000000	78.75005200000000	11.10700500000000	0.30297700000000	0.00000000000000	-0.07524300000000	0.00000000000000	15.56539400000000	0.00000000000000	0.00000000000000	6.14028500000000	0.00000000000000	
18.96494200000000	-45.75830500000000	792.85413400000004	56.85201200000000	0.04361400000000	0.00000000000000	0.11271800000000	-4.74744000000000	83.84803100000001	11.44599300000000	0.30449200000000	0.00000000000000	-0.07548100000000	0.00000000000000	15.43957600000000	0.00000000000000	0.00000000000000	6.37483900000000	0.00000000000000	
18.96659500000000	-45.83836000000000	789.39364899999998	56.46918300000000	0.04319100000000	0.00000000000000	0.11260200000000	-4.71687300000000	88.80184000000000	11.71432200000000	0.30591100000000	0.00000000000000	-0.07571300000000	0.00000000000000	15.31658500000000	0.00000000000000	0.00000000000000	6.57494800000000	0.00000000000000	
18.96826200000000	-45.93265200000000	785.82400900000005	56.06252500000000	0.04277200000000	0.00000000000000	0.11248100000000	-4.63575700000000	93.65831799999999	11.92195200000000	0.30724100000000	0.00000000000000	-0.07594000000000	0.00000000000000	15.19669000000000	0.00000000000000	0.00000000000000	6.74580900000000	0.00000000000000	
18.96994200000000	-46.04200200000000	782.14601700000003	55.63214100000000	0.04235600000000	0.00000000000000	0.11235400000000	-4.50810200000000	98.46769500000001	12.07920100000000	0.30849100000000	0.00000000000000	-0.07616200000000	0.00000000000000	15.08014500000000	0.00000000000000	0.00000000000000	6.89289300000000	0.00000000000000	
18.97159700000000	-46.16717100000000	778.36043700000005	55.17817500000000	0.04194400000000	0.00000000000000	0.11222200000000	-4.33783300000000	103.27935400000000	12.19591600000000	0.30966600000000	0.00000000000000	-0.07638100000000	0.00000000000000	14.96718900000000	0.00000000000000	0.00000000000000	7.02147700000000	0.00000000000000	
18.97326500000000	-46.30885100000000	774.46798600000000	54.70081800000000	0.04153500000000	0.00000000000000	0.11208600000000	-4.12847500000000	108.13835899999999	12.28081300000000	0.31077200000000	0.00000000000000	-0.07659700000000	0.00000000000000	14.85804500000000	0.00000000000000	0.00000000000000	7.13628100000000	0.00000000000000	
18.97494000000000	-46.46766500000000	770.46932800000002	54.20030000000000	0.04112800000000	0.00000000000000	0.11194400000000	-3.88292500000000	113.08291000000000	12.34102500000000	0.31181300000000	0.00000000000000	-0.07680900000000	0.00000000000000	14.75291800000000	0.00000000000000	0.00000000000000	7.24120700000000	0.00000000000000	
18.97660200000000	-46.64415800000000	766.36507200000005	53.67689700000000	0.04072300000000	0.00000000000000	0.11179700000000	-3.60331800000000	118.14272400000000	12.38183800000000	0.31279400000000	0.00000000000000	-0.07701900000000	0.00000000000000	14.65199400000000	0.00000000000000	0.00000000000000	7.33917900000000	0.00000000000000	
18.97826100000000	-46.83879700000000	762.15576599999997	53.13092200000000	0.04032000000000	0.00000000000000	0.11164400000000	-3.29098100000000	123.33833400000000	12.40662000000000	0.31371700000000	0.00000000000000	-0.07722700000000	0.00000000000000	14.55544100000000	0.00000000000000	0.00000000000000	7.43209200000000	0.00000000000000	
18.97994000000000	-47.05196400000000	757.84189500000002	52.56273400000000	0.03991800000000	0.00000000000000	0.11148700000000	-2.94646200000000	128.68115900000001	12.41690000000000	0.31458600000000	0.00000000000000	-0.07743400000000	0.00000000000000	14.46340500000000	0.00000000000000	0.00000000000000	7.52084300000000	0.00000000000000	
18.98159500000000	-47.28395300000000	753.42387399999996	51.97273000000000	0.03951700000000	0.00000000000000	0.11132500000000	-2.56961800000000	134.17422400000001	12.41257200000000	0.31540300000000	0.00000000000000	-0.07763800000000	0.00000000000000	14.37601100000000	0.00000000000000	0.00000000000000	7.60543100000000	0.00000000000000	
18.98326800000000	-47.53496700000000	748.90205000000003	51.36134700000000	0.03911700000000	0.00000000000000	0.11115700000000	-2.15973900000000	139.81334699999999	12.39218100000000	0.31616900000000	0.00000000000000	-0.07784200000000	0.00000000000000	14.29336500000000	0.00000000000000	0.00000000000000	7.68510600000000	0.00000000000000	
18.98493300000000	-47.80511300000000	744.27669800000001	50.72906000000000	0.03871600000000	0.00000000000000	0.11098500000000	-1.71571200000000	145.58861200000001	12.35325700000000	0.31688600000000	0.00000000000000	-0.07804400000000	0.00000000000000	14.21554700000000	0.00000000000000	0.00000000000000	7.75854500000000	0.00000000000000	
18.98659700000000	-48.09440100000000	739.54802299999994	50.07638500000000	0.03831500000000	0.00000000000000	0.11080800000000	-1.23617500000000	151.48598600000000	12.29266700000000	0.31755700000000	0.00000000000000	-0.07824600000000	0.00000000000000	14.14261800000000	0.00000000000000	0.00000000000000	7.82404300000000	0.00000000000000	
18.98826500000000	-48.40273900000000	734.71615399999996	49.40387100000000	0.03791300000000	0.00000000000000	0.11062600000000	-0.71967700000000	157.48890299999999	12.20694700000000	0.31818100000000	0.00000000000000	-0.07844700000000	0.00000000000000	14.07461100000000	0.00000000000000	0.00000000000000	7.87969200000000	0.00000000000000	
18.98994700000000	-48.72993200000000	729.78114800000003	48.71210600000000	0.03750800000000	0.00000000000000	0.11043900000000	-0.16482500000000	163.57973799999999	12.09260100000000	0.31876000000000	0.00000000000000	-0.07864700000000	0.00000000000000	14.01153900000000	0.00000000000000	0.00000000000000	7.92354600000000	0.00000000000000	
18.99159700000000	-49.07567700000000	724.74299299999996	48.00171100000000	0.03710200000000	0.00000000000000	0.11024700000000	0.42960500000000	169.74106000000000	11.94635300000000	0.31929400000000	0.00000000000000	-0.07884700000000	0.00000000000000	13.95339000000000	0.00000000000000	0.00000000000000	7.95376300000000	0.00000000000000	
18.99326900000000	-49.43956500000000	719.60160499999995	47.27334100000000	0.03669200000000	0.00000000000000	0.11005100000000	1.06457100000000	175.95662799999999	11.76533300000000	0.31978400000000	0.00000000000000	-0.07904700000000	0.00000000000000	13.90012700000000	0.00000000000000	0.00000000000000	7.96870300000000	0.00000000000000	
18.99492800000000	-49.82107800000000	714.35683400000005	46.52768200000000	0.03627800000000	0.00000000000000	0.10985100000000	1.74070200000000	182.21209600000000	11.54720600000000	0.32023100000000	0.00000000000000	-0.07924600000000	0.00000000000000	13.85169000000000	0.00000000000000	0.00000000000000	7.96701100000000	0.00000000000000	
18.99659400000000	-50.21958700000000	709.00846400000000	45.76545100000000	0.03586100000000	0.00000000000000	0.10964600000000	2.45826800000000	188.49545400000000	11.29024000000000	0.32063400000000	0.00000000000000	-0.07944600000000	0.00000000000000	13.80799400000000	0.00000000000000	0.00000000000000	7.94764900000000	0.00000000000000	
18.99826200000000	-50.63435000000000	703.55622300000005	44.98739500000000	0.03543800000000	0.00000000000000	0.10943700000000	3.21716700000000	194.79719499999999	10.99332500000000	0.32099400000000	0.00000000000000	-0.07964600000000	0.00000000000000	13.76893000000000	0.00000000000000	0.00000000000000	7.90991500000000	0.00000000000000	
18.99992800000000	-51.06451700000000	697.99978199999998	44.19428600000000	0.03500900000000	0.00000000000000	0.10922400000000	4.01693900000000	201.11027999999999	10.65594800000000	0.32131100000000	0.00000000000000	-0.07984500000000	0.00000000000000	13.73436500000000	0.00000000000000	0.00000000000000	7.85342600000000	0.00000000000000	
19.00160000000000	-51.50912600000000	692.33876499999997	43.38692500000000	0.03457400000000	0.00000000000000	0.10900800000000	4.85679200000000	207.42992899999999	10.27813200000000	0.32158400000000	0.00000000000000	-0.08004500000000	0.00000000000000	13.70414400000000	0.00000000000000	0.00000000000000	7.77809300000000	0.00000000000000	
19.00326900000000	-51.96710400000000	686.57275800000002	42.56613400000000	0.03413200000000	0.00000000000000	0.10878700000000	5.73564600000000	213.75328800000000	9.86035600000000	0.32181500000000	0.00000000000000	-0.08024500000000	0.00000000000000	13.67808700000000	0.00000000000000	0.00000000000000	7.68407400000000	0.00000000000000	
19.00493700000000	-52.43727100000000	680.70131300000003	41.73275900000000	0.03368200000000	0.00000000000000	0.10856300000000	6.65217300000000	220.07903600000000	9.40346900000000	0.32200300000000	0.00000000000000	-0.08044400000000	0.00000000000000	13.65599200000000	0.00000000000000	0.00000000000000	7.57173100000000	0.00000000000000	
